<mxfile host="app.diagrams.net" modified="2024-04-30T15:57:38.941Z" agent="Mozilla/5.0 (Macintosh; Intel Mac OS X 10_15_7) AppleWebKit/537.36 (KHTML, like Gecko) Chrome/124.0.0.0 Safari/537.36" etag="AVk-fLBNufhfi5js6J1v" version="22.1.16" type="device">
  <diagram name="Страница — 1" id="XUI6R_l1Mw74AGJ2dQFU">
    <mxGraphModel dx="954" dy="640" grid="1" gridSize="10" guides="1" tooltips="1" connect="1" arrows="1" fold="1" page="1" pageScale="1" pageWidth="827" pageHeight="1169" math="0" shadow="0">
      <root>
        <mxCell id="0" />
        <mxCell id="1" parent="0" />
        <mxCell id="WAJDrrt512jnv1mqTG8D-13" value="" style="rounded=0;whiteSpace=wrap;html=1;shadow=0;" vertex="1" parent="1">
          <mxGeometry x="400" y="250" width="310" height="230" as="geometry" />
        </mxCell>
        <mxCell id="WAJDrrt512jnv1mqTG8D-5" style="edgeStyle=orthogonalEdgeStyle;rounded=0;orthogonalLoop=1;jettySize=auto;html=1;exitX=0.5;exitY=1;exitDx=0;exitDy=0;entryX=0.5;entryY=0;entryDx=0;entryDy=0;" edge="1" parent="1" source="WAJDrrt512jnv1mqTG8D-1" target="WAJDrrt512jnv1mqTG8D-2">
          <mxGeometry relative="1" as="geometry" />
        </mxCell>
        <mxCell id="WAJDrrt512jnv1mqTG8D-16" style="edgeStyle=orthogonalEdgeStyle;rounded=0;orthogonalLoop=1;jettySize=auto;html=1;exitX=0.5;exitY=1;exitDx=0;exitDy=0;" edge="1" parent="1" source="WAJDrrt512jnv1mqTG8D-1" target="WAJDrrt512jnv1mqTG8D-9">
          <mxGeometry relative="1" as="geometry" />
        </mxCell>
        <mxCell id="WAJDrrt512jnv1mqTG8D-18" style="edgeStyle=orthogonalEdgeStyle;rounded=0;orthogonalLoop=1;jettySize=auto;html=1;exitX=0.5;exitY=1;exitDx=0;exitDy=0;entryX=0.5;entryY=0;entryDx=0;entryDy=0;" edge="1" parent="1" source="WAJDrrt512jnv1mqTG8D-1" target="WAJDrrt512jnv1mqTG8D-13">
          <mxGeometry relative="1" as="geometry" />
        </mxCell>
        <mxCell id="WAJDrrt512jnv1mqTG8D-1" value="Авторизация" style="rounded=0;whiteSpace=wrap;html=1;" vertex="1" parent="1">
          <mxGeometry x="220" y="120" width="120" height="60" as="geometry" />
        </mxCell>
        <mxCell id="WAJDrrt512jnv1mqTG8D-6" style="edgeStyle=none;rounded=0;orthogonalLoop=1;jettySize=auto;html=1;exitX=0.5;exitY=1;exitDx=0;exitDy=0;" edge="1" parent="1" source="WAJDrrt512jnv1mqTG8D-2" target="WAJDrrt512jnv1mqTG8D-3">
          <mxGeometry relative="1" as="geometry" />
        </mxCell>
        <mxCell id="WAJDrrt512jnv1mqTG8D-2" value="Страница начала опроса" style="rounded=0;whiteSpace=wrap;html=1;" vertex="1" parent="1">
          <mxGeometry x="70" y="250" width="120" height="60" as="geometry" />
        </mxCell>
        <mxCell id="WAJDrrt512jnv1mqTG8D-7" style="edgeStyle=none;rounded=0;orthogonalLoop=1;jettySize=auto;html=1;exitX=0.5;exitY=1;exitDx=0;exitDy=0;" edge="1" parent="1" source="WAJDrrt512jnv1mqTG8D-3" target="WAJDrrt512jnv1mqTG8D-4">
          <mxGeometry relative="1" as="geometry" />
        </mxCell>
        <mxCell id="WAJDrrt512jnv1mqTG8D-3" value="Страница вопроса" style="rounded=0;whiteSpace=wrap;html=1;" vertex="1" parent="1">
          <mxGeometry x="70" y="330" width="120" height="60" as="geometry" />
        </mxCell>
        <mxCell id="WAJDrrt512jnv1mqTG8D-4" value="Страница сохранения" style="rounded=0;whiteSpace=wrap;html=1;" vertex="1" parent="1">
          <mxGeometry x="70" y="430" width="120" height="60" as="geometry" />
        </mxCell>
        <mxCell id="WAJDrrt512jnv1mqTG8D-17" style="edgeStyle=orthogonalEdgeStyle;rounded=0;orthogonalLoop=1;jettySize=auto;html=1;exitX=0.5;exitY=1;exitDx=0;exitDy=0;" edge="1" parent="1" source="WAJDrrt512jnv1mqTG8D-9" target="WAJDrrt512jnv1mqTG8D-10">
          <mxGeometry relative="1" as="geometry" />
        </mxCell>
        <mxCell id="WAJDrrt512jnv1mqTG8D-9" value="Страница истории опросов" style="rounded=0;whiteSpace=wrap;html=1;" vertex="1" parent="1">
          <mxGeometry x="240" y="250" width="120" height="60" as="geometry" />
        </mxCell>
        <mxCell id="WAJDrrt512jnv1mqTG8D-10" value="Страница редактирования опроса" style="rounded=0;whiteSpace=wrap;html=1;" vertex="1" parent="1">
          <mxGeometry x="240" y="330" width="120" height="60" as="geometry" />
        </mxCell>
        <mxCell id="WAJDrrt512jnv1mqTG8D-11" value="Страница управления пользователями" style="rounded=0;whiteSpace=wrap;html=1;" vertex="1" parent="1">
          <mxGeometry x="414" y="310" width="120" height="60" as="geometry" />
        </mxCell>
        <mxCell id="WAJDrrt512jnv1mqTG8D-19" style="edgeStyle=orthogonalEdgeStyle;rounded=0;orthogonalLoop=1;jettySize=auto;html=1;exitX=0.5;exitY=1;exitDx=0;exitDy=0;entryX=0.5;entryY=0;entryDx=0;entryDy=0;" edge="1" parent="1" source="WAJDrrt512jnv1mqTG8D-12" target="WAJDrrt512jnv1mqTG8D-14">
          <mxGeometry relative="1" as="geometry" />
        </mxCell>
        <mxCell id="WAJDrrt512jnv1mqTG8D-12" value="Страница управления опросами" style="rounded=0;whiteSpace=wrap;html=1;" vertex="1" parent="1">
          <mxGeometry x="570" y="310" width="120" height="60" as="geometry" />
        </mxCell>
        <mxCell id="WAJDrrt512jnv1mqTG8D-14" value="Конструктор опросов" style="rounded=0;whiteSpace=wrap;html=1;" vertex="1" parent="1">
          <mxGeometry x="570" y="400" width="120" height="60" as="geometry" />
        </mxCell>
        <mxCell id="WAJDrrt512jnv1mqTG8D-20" value="Административная панель" style="text;strokeColor=none;align=center;fillColor=none;html=1;verticalAlign=middle;whiteSpace=wrap;rounded=0;labelBorderColor=none;fontSize=16;" vertex="1" parent="1">
          <mxGeometry x="420" y="265" width="270" height="30" as="geometry" />
        </mxCell>
      </root>
    </mxGraphModel>
  </diagram>
</mxfile>
